<svg width="16" height="16" fill="none" xmlns="http://www.w3.org/2000/svg"><path d="M11.666 9.587c-.199-.099-1.178-.579-1.36-.645-.183-.066-.316-.099-.448.1-.133.197-.515.645-.631.777-.116.132-.233.148-.431.048a5.442 5.442 0 0 1-1.6-.982 5.971 5.971 0 0 1-1.108-1.373c-.116-.199-.012-.306.087-.404.09-.09.2-.232.298-.348.082-.1.15-.211.2-.33a.363.363 0 0 0-.017-.347c-.05-.1-.448-1.075-.613-1.472-.162-.386-.326-.334-.449-.34a8.173 8.173 0 0 0-.381-.007.734.734 0 0 0-.53.249 2.222 2.222 0 0 0-.697 1.652c.064.748.347 1.46.812 2.05a8.857 8.857 0 0 0 3.4 2.992c.371.159.75.298 1.136.418.406.122.835.149 1.254.077a2.052 2.052 0 0 0 1.343-.94c.13-.297.17-.625.116-.943-.05-.084-.182-.132-.381-.232zm2.003-7.264a7.994 7.994 0 0 0-10.482-.686A7.927 7.927 0 0 0 .22 6.379a7.9 7.9 0 0 0 .91 5.512L0 16l4.223-1.102a7.992 7.992 0 0 0 3.808.965h.003a7.997 7.997 0 0 0 4.425-1.338 7.942 7.942 0 0 0 2.934-3.56 7.9 7.9 0 0 0 .454-4.581 7.922 7.922 0 0 0-2.178-4.061zm-2.117 11.193a6.65 6.65 0 0 1-3.518 1.008H8.03a6.634 6.634 0 0 1-3.37-.92l-.242-.142-2.507.654.67-2.432-.158-.25a6.568 6.568 0 0 1 .213-7.32 6.617 6.617 0 0 1 3.041-2.341 6.65 6.65 0 0 1 3.835-.265 6.629 6.629 0 0 1 3.336 1.9 6.563 6.563 0 0 1 1.226 7.22 6.6 6.6 0 0 1-2.523 2.888z" fill="#000"/></svg>