<svg width="14" height="14" fill="none" xmlns="http://www.w3.org/2000/svg"><path d="M13 1.667h-2V1a.667.667 0 0 0-.667-.667H3.667A.667.667 0 0 0 3 1v.667H1a.667.667 0 0 0-.667.666v2A2.667 2.667 0 0 0 3 7h1.027a4 4 0 0 0 2.306 1.273v1.394h-.666a2 2 0 0 0-2 2V13a.667.667 0 0 0 .666.667h5.334a.667.667 0 0 0 .666-.667v-1.333a2 2 0 0 0-2-2h-.666V8.273A4 4 0 0 0 9.973 7H11a2.667 2.667 0 0 0 2.667-2.667v-2A.667.667 0 0 0 13 1.667zm-10 4a1.333 1.333 0 0 1-1.333-1.334V3H3v1.333a4 4 0 0 0 .233 1.334H3zM8.333 11a.667.667 0 0 1 .667.667v.666H5v-.666A.667.667 0 0 1 5.667 11h2.666zm1.334-6.667a2.667 2.667 0 0 1-5.334 0V1.667h5.334v2.666zm2.666 0A1.333 1.333 0 0 1 11 5.667h-.233A4 4 0 0 0 11 4.333V3h1.333v1.333z" fill="#fff"/></svg>