<svg width="14" height="14" fill="none" xmlns="http://www.w3.org/2000/svg"><path d="M7 3.667a.667.667 0 0 0-.667.666V7a.667.667 0 1 0 1.334 0V4.333A.667.667 0 0 0 7 3.667zm.613 5.746a.506.506 0 0 0-.06-.12l-.08-.1a.667.667 0 0 0-.726-.14.767.767 0 0 0-.22.14.667.667 0 0 0-.14.727.6.6 0 0 0 .36.36.626.626 0 0 0 .506 0 .6.6 0 0 0 .36-.36.667.667 0 0 0 .054-.253.907.907 0 0 0 0-.134.427.427 0 0 0-.054-.12zM7 .333a6.667 6.667 0 1 0 0 13.334A6.667 6.667 0 0 0 7 .333zm0 12A5.333 5.333 0 1 1 7 1.668a5.333 5.333 0 0 1 0 10.665z" fill="#fff"/></svg>