<svg width="12" height="14" fill="none" xmlns="http://www.w3.org/2000/svg"><path d="M11.087 1.433a.667.667 0 0 0-.56-.133A5.333 5.333 0 0 1 6.38.453a.667.667 0 0 0-.76 0 5.333 5.333 0 0 1-4.147.847.667.667 0 0 0-.806.653V6.92a6 6 0 0 0 2.513 4.887l2.433 1.733a.667.667 0 0 0 .774 0l2.433-1.733a6 6 0 0 0 2.513-4.887V1.953a.666.666 0 0 0-.246-.52zM10 6.92a4.667 4.667 0 0 1-1.953 3.8L6 12.18l-2.047-1.46A4.666 4.666 0 0 1 2 6.92v-4.2a6.667 6.667 0 0 0 4-.927 6.667 6.667 0 0 0 4 .927v4.2z" fill="#fff"/></svg>