<svg width="14" height="14" fill="none" xmlns="http://www.w3.org/2000/svg"><path d="M13.666 5.447A.667.667 0 0 0 13.093 5L9.3 4.447 7.6 1a.667.667 0 0 0-1.2 0L4.7 4.44.906 5a.667.667 0 0 0-.54.453.667.667 0 0 0 .167.667l2.753 2.667-.666 3.786a.667.667 0 0 0 .966.714L7 11.507l3.4 1.786c.093.053.2.08.306.08a.667.667 0 0 0 .625-.42.667.667 0 0 0 .036-.373L10.7 8.793l2.753-2.666a.666.666 0 0 0 .213-.68zm-4.1 2.666a.667.667 0 0 0-.193.594l.48 2.793-2.507-1.333a.666.666 0 0 0-.626 0L4.213 11.5l.48-2.793a.667.667 0 0 0-.193-.594l-2-2 2.806-.406a.667.667 0 0 0 .507-.367L7 2.8l1.253 2.547a.667.667 0 0 0 .507.366l2.806.407-2 1.993z" fill="#fff"/></svg>