<svg width="16" height="12" fill="none" xmlns="http://www.w3.org/2000/svg"><path d="M8.2 6.147a3.28 3.28 0 0 0 1.133-2.48 3.333 3.333 0 1 0-6.666 0A3.28 3.28 0 0 0 3.8 6.147 5.333 5.333 0 0 0 .667 11 .667.667 0 1 0 2 11a4 4 0 0 1 8 0 .667.667 0 1 0 1.333 0A5.334 5.334 0 0 0 8.2 6.147zM6 5.667a2 2 0 1 1 0-4 2 2 0 0 1 0 4zm6.493.213A3.332 3.332 0 0 0 10 .333a.667.667 0 1 0 0 1.334 2 2 0 0 1 2 2 2 2 0 0 1-1 1.726.667.667 0 0 0-.033 1.134l.26.173.086.047A4.666 4.666 0 0 1 13.98 11a.667.667 0 1 0 1.333 0 6 6 0 0 0-2.82-5.12z" fill="#fff"/></svg>